<svg xmlns="http://www.w3.org/2000/svg" xmlns:xlink="http://www.w3.org/1999/xlink" contentStyleType="text/css" data-diagram-type="CLASS" height="322px" preserveAspectRatio="none" style="width:432px;height:322px;background:#FFFFFF;" version="1.1" viewBox="0 0 432 322" width="432px" zoomAndPan="magnify"><title>Coordinate Package Class Relationships</title><defs/><g><g class="title" data-source-line="1"><text fill="#000000" font-family="sans-serif" font-size="14" font-weight="bold" lengthAdjust="spacing" textLength="315.9775" x="51.3277" y="22.9951">Coordinate Package Class Relationships</text></g><!--class Coord--><g class="entity" data-entity="Coordinate" data-source-line="3" data-uid="ent0002" id="entity_Coordinate"><rect fill="#F1F1F1" height="96.8906" rx="2.5" ry="2.5" style="stroke:#181818;stroke-width:0.5;" width="235.5352" x="101.76" y="44.2969"/><ellipse cx="176.781" cy="60.2969" fill="#ADD1B2" rx="11" ry="11" style="stroke:#181818;stroke-width:1;"/><path d="M179.7497,65.9375 Q179.1716,66.2344 178.531,66.375 Q177.8904,66.5313 177.1872,66.5313 Q174.6872,66.5313 173.3591,64.8906 Q172.0466,63.2344 172.0466,60.1094 Q172.0466,56.9844 173.3591,55.3281 Q174.6872,53.6719 177.1872,53.6719 Q177.8904,53.6719 178.531,53.8281 Q179.1872,53.9844 179.7497,54.2813 L179.7497,57 Q179.1247,56.4219 178.531,56.1563 Q177.9372,55.875 177.3122,55.875 Q175.9685,55.875 175.281,56.9531 Q174.5935,58.0156 174.5935,60.1094 Q174.5935,62.2031 175.281,63.2813 Q175.9685,64.3438 177.3122,64.3438 Q177.9372,64.3438 178.531,64.0781 Q179.1247,63.7969 179.7497,63.2188 L179.7497,65.9375 Z " fill="#000000"/><text fill="#000000" font-family="sans-serif" font-size="14" lengthAdjust="spacing" textLength="76.9932" x="197.281" y="65.1436">Coordinate</text><line style="stroke:#181818;stroke-width:0.5;" x1="102.76" x2="336.2952" y1="76.2969" y2="76.2969"/><ellipse cx="112.76" cy="89.9453" fill="none" rx="3" ry="3" style="stroke:#038048;stroke-width:1;"/><text fill="#000000" font-family="sans-serif" font-size="14" lengthAdjust="spacing" textLength="53.1904" x="121.76" y="93.292">row: int</text><ellipse cx="112.76" cy="106.2422" fill="none" rx="3" ry="3" style="stroke:#038048;stroke-width:1;"/><text fill="#000000" font-family="sans-serif" font-size="14" lengthAdjust="spacing" textLength="78.9551" x="121.76" y="109.5889">column: int</text><line style="stroke:#181818;stroke-width:0.5;" x1="102.76" x2="336.2952" y1="116.8906" y2="116.8906"/><ellipse cx="112.76" cy="130.5391" fill="#84BE84" rx="3" ry="3" style="stroke:#038048;stroke-width:1;"/><text fill="#000000" font-family="sans-serif" font-size="14" lengthAdjust="spacing" textLength="209.5352" x="121.76" y="133.8857">shift(delta: Delta): Coordinate</text></g><!--class Delta--><g class="entity" data-entity="Delta" data-source-line="9" data-uid="ent0003" id="entity_Delta"><rect fill="#F1F1F1" height="96.8906" rx="2.5" ry="2.5" style="stroke:#181818;stroke-width:0.5;" width="207.0566" x="7" y="218.1869"/><ellipse cx="87.6025" cy="234.1869" fill="#ADD1B2" rx="11" ry="11" style="stroke:#181818;stroke-width:1;"/><path d="M90.5713,239.8275 Q89.9932,240.1244 89.3525,240.265 Q88.7119,240.4213 88.0088,240.4213 Q85.5088,240.4213 84.1807,238.7806 Q82.8682,237.1244 82.8682,233.9994 Q82.8682,230.8744 84.1807,229.2181 Q85.5088,227.5619 88.0088,227.5619 Q88.7119,227.5619 89.3525,227.7181 Q90.0088,227.8744 90.5713,228.1713 L90.5713,230.89 Q89.9463,230.3119 89.3525,230.0463 Q88.7588,229.765 88.1338,229.765 Q86.79,229.765 86.1025,230.8431 Q85.415,231.9056 85.415,233.9994 Q85.415,236.0931 86.1025,237.1713 Q86.79,238.2338 88.1338,238.2338 Q88.7588,238.2338 89.3525,237.9681 Q89.9463,237.6869 90.5713,237.1088 L90.5713,239.8275 Z " fill="#000000"/><text fill="#000000" font-family="sans-serif" font-size="14" lengthAdjust="spacing" textLength="37.3516" x="108.1025" y="239.0336">Delta</text><line style="stroke:#181818;stroke-width:0.5;" x1="8" x2="213.0566" y1="250.1869" y2="250.1869"/><ellipse cx="18" cy="263.8353" fill="none" rx="3" ry="3" style="stroke:#038048;stroke-width:1;"/><text fill="#000000" font-family="sans-serif" font-size="14" lengthAdjust="spacing" textLength="95.6484" x="27" y="267.182">row_delta: int</text><ellipse cx="18" cy="280.1322" fill="none" rx="3" ry="3" style="stroke:#038048;stroke-width:1;"/><text fill="#000000" font-family="sans-serif" font-size="14" lengthAdjust="spacing" textLength="121.4131" x="27" y="283.4789">column_delta: int</text><line style="stroke:#181818;stroke-width:0.5;" x1="8" x2="213.0566" y1="290.7806" y2="290.7806"/><ellipse cx="18" cy="304.4291" fill="#84BE84" rx="3" ry="3" style="stroke:#038048;stroke-width:1;"/><text fill="#000000" font-family="sans-serif" font-size="14" lengthAdjust="spacing" textLength="181.0566" x="27" y="307.7757">__mul__(scalar: int): Delta</text></g><!--class CartesianDistance--><g class="entity" data-entity="CartesianDistance" data-source-line="15" data-uid="ent0004" id="entity_CartesianDistance"><rect fill="#F1F1F1" height="96.8906" rx="2.5" ry="2.5" style="stroke:#181818;stroke-width:0.5;" width="160.0645" x="249.5" y="218.1869"/><ellipse cx="264.5" cy="234.1869" fill="#ADD1B2" rx="11" ry="11" style="stroke:#181818;stroke-width:1;"/><path d="M267.4688,239.8275 Q266.8906,240.1244 266.25,240.265 Q265.6094,240.4213 264.9063,240.4213 Q262.4063,240.4213 261.0781,238.7806 Q259.7656,237.1244 259.7656,233.9994 Q259.7656,230.8744 261.0781,229.2181 Q262.4063,227.5619 264.9063,227.5619 Q265.6094,227.5619 266.25,227.7181 Q266.9063,227.8744 267.4688,228.1713 L267.4688,230.89 Q266.8438,230.3119 266.25,230.0463 Q265.6563,229.765 265.0313,229.765 Q263.6875,229.765 263,230.8431 Q262.3125,231.9056 262.3125,233.9994 Q262.3125,236.0931 263,237.1713 Q263.6875,238.2338 265.0313,238.2338 Q265.6563,238.2338 266.25,237.9681 Q266.8438,237.6869 267.4688,237.1088 L267.4688,239.8275 Z " fill="#000000"/><text fill="#000000" font-family="sans-serif" font-size="14" lengthAdjust="spacing" textLength="128.0645" x="278.5" y="239.0336">CartesianDistance</text><line style="stroke:#181818;stroke-width:0.5;" x1="250.5" x2="408.5645" y1="250.1869" y2="250.1869"/><ellipse cx="260.5" cy="263.8353" fill="none" rx="3" ry="3" style="stroke:#038048;stroke-width:1;"/><text fill="#000000" font-family="sans-serif" font-size="14" lengthAdjust="spacing" textLength="95.0469" x="269.5" y="267.182">p: Coordinate</text><ellipse cx="260.5" cy="280.1322" fill="none" rx="3" ry="3" style="stroke:#038048;stroke-width:1;"/><text fill="#000000" font-family="sans-serif" font-size="14" lengthAdjust="spacing" textLength="95.0469" x="269.5" y="283.4789">q: Coordinate</text><ellipse cx="260.5" cy="296.4291" fill="none" rx="3" ry="3" style="stroke:#038048;stroke-width:1;"/><text fill="#000000" font-family="sans-serif" font-size="14" lengthAdjust="spacing" textLength="86.7412" x="269.5" y="299.7757">distance: int</text><line style="stroke:#181818;stroke-width:0.5;" x1="250.5" x2="408.5645" y1="307.0775" y2="307.0775"/></g><!--reverse link Coord to Delta--><g class="link" data-entity-1="Coordinate" data-entity-2="Delta" data-source-line="21" data-uid="lnk5" id="link_Coordinate_Delta"><path codeLine="21" d="M147.5318,150.1688 C138.6418,159.1788 138.83,160.5869 132.53,171.1869 C124.19,185.2269 119.01,202.1869 115.79,217.8369" fill="none" id="Coordinate-backto-Delta" style="stroke:#181818;stroke-width:1;"/><polygon fill="#181818" points="155.96,141.6269,148.8986,143.0885,147.5318,150.1688,154.5932,148.7073,155.96,141.6269" style="stroke:#181818;stroke-width:1;"/><text fill="#000000" font-family="sans-serif" font-size="13" lengthAdjust="spacing" textLength="152.75" x="133.53" y="184.2538">uses for transformation</text><text fill="#000000" font-family="sans-serif" font-size="13" lengthAdjust="spacing" textLength="8.271" x="138.8988" y="161.2794">1</text><text fill="#000000" font-family="sans-serif" font-size="13" lengthAdjust="spacing" textLength="8.271" x="107.9865" y="206.9966">1</text></g><!--reverse link Coord to CartesianDistance--><g class="link" data-entity-1="Coordinate" data-entity-2="CartesianDistance" data-source-line="22" data-uid="lnk6" id="link_Coordinate_CartesianDistance"><path codeLine="22" d="M275.9718,150.6915 C284.0618,160.0415 284.06,161.0269 290.53,171.1869 C299.67,185.5569 307.44,202.4269 313.58,217.9069" fill="none" id="Coordinate-backto-CartesianDistance" style="stroke:#181818;stroke-width:1;"/><polygon fill="#181818" points="268.12,141.6169,269.021,148.7715,275.9718,150.6915,275.0708,143.537,268.12,141.6169" style="stroke:#181818;stroke-width:1;"/><text fill="#000000" font-family="sans-serif" font-size="13" lengthAdjust="spacing" textLength="124.103" x="300.53" y="184.2538">measures between</text><text fill="#000000" font-family="sans-serif" font-size="13" lengthAdjust="spacing" textLength="8.271" x="266.1303" y="161.268">1</text><text fill="#000000" font-family="sans-serif" font-size="13" lengthAdjust="spacing" textLength="8.271" x="302.7933" y="207.0764">2</text></g><!--SRC=[RP0z3i8m38NtdiBgn8ywm9WL3e2uG6HI0n5f0h4h1iJTITEYbf_9yKlUv-U85KUm2I7MrgCGxD1Sy9GaXyom9uTYW-UplN9Hc2nENZyAW2N4S5TWlUJ61DSsVkoJzIYpcfoWWcrNvcg2A9vlRBuRYNgmV7A_LQsRrcazOuCEOzRdmvYHlC4en1RzrhAWD-_SruyWdNBxKUh1qezCoCdsvQg4HLNbsgTNq38n74C4YUWv7PhyWNzjw_9FD0KD8RSnOGuaToB_0W00]--></g></svg>