<svg xmlns="http://www.w3.org/2000/svg" xmlns:xlink="http://www.w3.org/1999/xlink" contentStyleType="text/css" data-diagram-type="CLASS" height="364px" preserveAspectRatio="none" style="width:836px;height:364px;background:#FFFFFF;" version="1.1" viewBox="0 0 836 364" width="836px" zoomAndPan="magnify"><title>Relationships Between Classes Implementing Walk Interface</title><defs/><g><g class="title" data-source-line="1"><text fill="#000000" font-family="sans-serif" font-size="14" font-weight="bold" lengthAdjust="spacing" textLength="479.4248" x="171.6779" y="22.9951">Relationships Between Classes Implementing Walk Interface</text></g><!--class Walk--><g class="entity" data-entity="Walk" data-source-line="3" data-uid="ent0002" id="entity_Walk"><rect fill="#F1F1F1" height="64.2969" rx="2.5" ry="2.5" style="stroke:#181818;stroke-width:0.5;" width="513.5049" x="138.87" y="152.2969"/><ellipse cx="374.163" cy="168.2969" fill="#B4A7E5" rx="11" ry="11" style="stroke:#181818;stroke-width:1;"/><path d="M370.0848,164.0625 L370.0848,161.9063 L377.4755,161.9063 L377.4755,164.0625 L375.0067,164.0625 L375.0067,172.1406 L377.4755,172.1406 L377.4755,174.2969 L370.0848,174.2969 L370.0848,172.1406 L372.5536,172.1406 L372.5536,164.0625 L370.0848,164.0625 Z " fill="#000000"/><text fill="#000000" font-family="sans-serif" font-size="14" font-style="italic" lengthAdjust="spacing" textLength="34.4189" x="394.663" y="173.1436">Walk</text><line style="stroke:#181818;stroke-width:0.5;" x1="139.87" x2="651.3749" y1="184.2969" y2="184.2969"/><line style="stroke:#181818;stroke-width:0.5;" x1="139.87" x2="651.3749" y1="192.2969" y2="192.2969"/><text fill="#000000" font-family="sans-serif" font-size="14" lengthAdjust="spacing" textLength="501.5049" x="144.87" y="209.292">  + is_walkable(chess_piece: ChessPiece, destination: Coordinate): bool</text></g><!--class KingWalk--><g class="entity" data-entity="KingWalk" data-source-line="7" data-uid="ent0003" id="entity_KingWalk"><rect fill="#F1F1F1" height="48" rx="2.5" ry="2.5" style="stroke:#181818;stroke-width:0.5;" width="97.249" x="7" y="160.4469"/><ellipse cx="22" cy="176.4469" fill="#ADD1B2" rx="11" ry="11" style="stroke:#181818;stroke-width:1;"/><path d="M24.9688,182.0875 Q24.3906,182.3844 23.75,182.525 Q23.1094,182.6812 22.4063,182.6812 Q19.9063,182.6812 18.5781,181.0406 Q17.2656,179.3844 17.2656,176.2594 Q17.2656,173.1344 18.5781,171.4781 Q19.9063,169.8219 22.4063,169.8219 Q23.1094,169.8219 23.75,169.9781 Q24.4063,170.1344 24.9688,170.4312 L24.9688,173.15 Q24.3438,172.5719 23.75,172.3062 Q23.1563,172.025 22.5313,172.025 Q21.1875,172.025 20.5,173.1031 Q19.8125,174.1656 19.8125,176.2594 Q19.8125,178.3531 20.5,179.4312 Q21.1875,180.4937 22.5313,180.4937 Q23.1563,180.4937 23.75,180.2281 Q24.3438,179.9469 24.9688,179.3687 L24.9688,182.0875 Z " fill="#000000"/><text fill="#000000" font-family="sans-serif" font-size="14" lengthAdjust="spacing" textLength="65.249" x="36" y="181.2936">KingWalk</text><line style="stroke:#181818;stroke-width:0.5;" x1="8" x2="103.249" y1="192.4469" y2="192.4469"/><line style="stroke:#181818;stroke-width:0.5;" x1="8" x2="103.249" y1="200.4469" y2="200.4469"/></g><!--class QueenWalk--><g class="entity" data-entity="QueenWalk" data-source-line="8" data-uid="ent0004" id="entity_QueenWalk"><rect fill="#F1F1F1" height="48" rx="2.5" ry="2.5" style="stroke:#181818;stroke-width:0.5;" width="112.4111" x="687.42" y="160.4469"/><ellipse cx="702.42" cy="176.4469" fill="#ADD1B2" rx="11" ry="11" style="stroke:#181818;stroke-width:1;"/><path d="M705.3888,182.0875 Q704.8106,182.3844 704.17,182.525 Q703.5294,182.6812 702.8263,182.6812 Q700.3263,182.6812 698.9981,181.0406 Q697.6856,179.3844 697.6856,176.2594 Q697.6856,173.1344 698.9981,171.4781 Q700.3263,169.8219 702.8263,169.8219 Q703.5294,169.8219 704.17,169.9781 Q704.8263,170.1344 705.3888,170.4312 L705.3888,173.15 Q704.7638,172.5719 704.17,172.3062 Q703.5763,172.025 702.9513,172.025 Q701.6075,172.025 700.92,173.1031 Q700.2325,174.1656 700.2325,176.2594 Q700.2325,178.3531 700.92,179.4312 Q701.6075,180.4937 702.9513,180.4937 Q703.5763,180.4937 704.17,180.2281 Q704.7638,179.9469 705.3888,179.3687 L705.3888,182.0875 Z " fill="#000000"/><text fill="#000000" font-family="sans-serif" font-size="14" lengthAdjust="spacing" textLength="80.4111" x="716.42" y="181.2936">QueenWalk</text><line style="stroke:#181818;stroke-width:0.5;" x1="688.42" x2="798.8311" y1="192.4469" y2="192.4469"/><line style="stroke:#181818;stroke-width:0.5;" x1="688.42" x2="798.8311" y1="200.4469" y2="200.4469"/></g><!--class KnightWalk--><g class="entity" data-entity="KnightWalk" data-source-line="9" data-uid="ent0005" id="entity_KnightWalk"><rect fill="#F1F1F1" height="48" rx="2.5" ry="2.5" style="stroke:#181818;stroke-width:0.5;" width="111.6113" x="164.82" y="292.8869"/><ellipse cx="179.82" cy="308.8869" fill="#ADD1B2" rx="11" ry="11" style="stroke:#181818;stroke-width:1;"/><path d="M182.7888,314.5275 Q182.2106,314.8244 181.57,314.965 Q180.9294,315.1213 180.2263,315.1213 Q177.7263,315.1213 176.3981,313.4806 Q175.0856,311.8244 175.0856,308.6994 Q175.0856,305.5744 176.3981,303.9181 Q177.7263,302.2619 180.2263,302.2619 Q180.9294,302.2619 181.57,302.4181 Q182.2263,302.5744 182.7888,302.8713 L182.7888,305.59 Q182.1638,305.0119 181.57,304.7463 Q180.9763,304.465 180.3513,304.465 Q179.0075,304.465 178.32,305.5431 Q177.6325,306.6056 177.6325,308.6994 Q177.6325,310.7931 178.32,311.8713 Q179.0075,312.9338 180.3513,312.9338 Q180.9763,312.9338 181.57,312.6681 Q182.1638,312.3869 182.7888,311.8088 L182.7888,314.5275 Z " fill="#000000"/><text fill="#000000" font-family="sans-serif" font-size="14" lengthAdjust="spacing" textLength="79.6113" x="193.82" y="313.7336">KnightWalk</text><line style="stroke:#181818;stroke-width:0.5;" x1="165.82" x2="275.4313" y1="324.8869" y2="324.8869"/><line style="stroke:#181818;stroke-width:0.5;" x1="165.82" x2="275.4313" y1="332.8869" y2="332.8869"/></g><!--class BishopWalk--><g class="entity" data-entity="BishopWalk" data-source-line="10" data-uid="ent0006" id="entity_BishopWalk"><rect fill="#F1F1F1" height="48" rx="2.5" ry="2.5" style="stroke:#181818;stroke-width:0.5;" width="113.5322" x="411.86" y="44.2969"/><ellipse cx="426.86" cy="60.2969" fill="#ADD1B2" rx="11" ry="11" style="stroke:#181818;stroke-width:1;"/><path d="M429.8288,65.9375 Q429.2506,66.2344 428.61,66.375 Q427.9694,66.5313 427.2663,66.5313 Q424.7663,66.5313 423.4381,64.8906 Q422.1256,63.2344 422.1256,60.1094 Q422.1256,56.9844 423.4381,55.3281 Q424.7663,53.6719 427.2663,53.6719 Q427.9694,53.6719 428.61,53.8281 Q429.2663,53.9844 429.8288,54.2813 L429.8288,57 Q429.2038,56.4219 428.61,56.1563 Q428.0163,55.875 427.3913,55.875 Q426.0475,55.875 425.36,56.9531 Q424.6725,58.0156 424.6725,60.1094 Q424.6725,62.2031 425.36,63.2813 Q426.0475,64.3438 427.3913,64.3438 Q428.0163,64.3438 428.61,64.0781 Q429.2038,63.7969 429.8288,63.2188 L429.8288,65.9375 Z " fill="#000000"/><text fill="#000000" font-family="sans-serif" font-size="14" lengthAdjust="spacing" textLength="81.5322" x="440.86" y="65.1436">BishopWalk</text><line style="stroke:#181818;stroke-width:0.5;" x1="412.86" x2="524.3922" y1="76.2969" y2="76.2969"/><line style="stroke:#181818;stroke-width:0.5;" x1="412.86" x2="524.3922" y1="84.2969" y2="84.2969"/></g><!--class CastleWalk--><g class="entity" data-entity="CastleWalk" data-source-line="11" data-uid="ent0007" id="entity_CastleWalk"><rect fill="#F1F1F1" height="48" rx="2.5" ry="2.5" style="stroke:#181818;stroke-width:0.5;" width="110.0596" x="266.59" y="44.2969"/><ellipse cx="281.59" cy="60.2969" fill="#ADD1B2" rx="11" ry="11" style="stroke:#181818;stroke-width:1;"/><path d="M284.5588,65.9375 Q283.9806,66.2344 283.34,66.375 Q282.6994,66.5313 281.9963,66.5313 Q279.4963,66.5313 278.1681,64.8906 Q276.8556,63.2344 276.8556,60.1094 Q276.8556,56.9844 278.1681,55.3281 Q279.4963,53.6719 281.9963,53.6719 Q282.6994,53.6719 283.34,53.8281 Q283.9963,53.9844 284.5588,54.2813 L284.5588,57 Q283.9338,56.4219 283.34,56.1563 Q282.7463,55.875 282.1213,55.875 Q280.7775,55.875 280.09,56.9531 Q279.4025,58.0156 279.4025,60.1094 Q279.4025,62.2031 280.09,63.2813 Q280.7775,64.3438 282.1213,64.3438 Q282.7463,64.3438 283.34,64.0781 Q283.9338,63.7969 284.5588,63.2188 L284.5588,65.9375 Z " fill="#000000"/><text fill="#000000" font-family="sans-serif" font-size="14" lengthAdjust="spacing" textLength="78.0596" x="295.59" y="65.1436">CastleWalk</text><line style="stroke:#181818;stroke-width:0.5;" x1="267.59" x2="375.6496" y1="76.2969" y2="76.2969"/><line style="stroke:#181818;stroke-width:0.5;" x1="267.59" x2="375.6496" y1="84.2969" y2="84.2969"/></g><!--class PawnWalk--><g class="entity" data-entity="PawnWalk" data-source-line="12" data-uid="ent0008" id="entity_PawnWalk"><rect fill="#F1F1F1" height="80.5938" rx="2.5" ry="2.5" style="stroke:#181818;stroke-width:0.5;" width="518.3105" x="311.47" y="276.5969"/><ellipse cx="530.4934" cy="292.5969" fill="#ADD1B2" rx="11" ry="11" style="stroke:#181818;stroke-width:1;"/><path d="M533.4622,298.2375 Q532.8841,298.5344 532.2434,298.675 Q531.6028,298.8312 530.8997,298.8312 Q528.3997,298.8312 527.0716,297.1906 Q525.7591,295.5344 525.7591,292.4094 Q525.7591,289.2844 527.0716,287.6281 Q528.3997,285.9719 530.8997,285.9719 Q531.6028,285.9719 532.2434,286.1281 Q532.8997,286.2844 533.4622,286.5812 L533.4622,289.3 Q532.8372,288.7219 532.2434,288.4562 Q531.6497,288.175 531.0247,288.175 Q529.6809,288.175 528.9934,289.2531 Q528.3059,290.3156 528.3059,292.4094 Q528.3059,294.5031 528.9934,295.5812 Q529.6809,296.6437 531.0247,296.6437 Q531.6497,296.6437 532.2434,296.3781 Q532.8372,296.0969 533.4622,295.5187 L533.4622,298.2375 Z " fill="#000000"/><text fill="#000000" font-family="sans-serif" font-size="14" lengthAdjust="spacing" textLength="71.7637" x="550.9934" y="297.4436">PawnWalk</text><line style="stroke:#181818;stroke-width:0.5;" x1="312.47" x2="828.7805" y1="308.5969" y2="308.5969"/><line style="stroke:#181818;stroke-width:0.5;" x1="312.47" x2="828.7805" y1="316.5969" y2="316.5969"/><text fill="#000000" font-family="sans-serif" font-size="14" lengthAdjust="spacing" textLength="506.3105" x="317.47" y="333.592">  - can_advance(chess_piece: ChessPiece, destination: Coordinate): bool</text><text fill="#000000" font-family="sans-serif" font-size="14" lengthAdjust="spacing" textLength="490.7383" x="317.47" y="349.8889">  - can_attack(chess_piece: ChessPiece, destination: Coordinate): bool</text></g><!--link KingWalk to Walk--><g class="link" data-entity-1="KingWalk" data-entity-2="Walk" data-source-line="17" data-uid="lnk10" id="link_KingWalk_Walk"><path codeLine="17" d="M104.43,184.4469 C115.81,184.4469 121.18,184.4469 132.56,184.4469" fill="none" id="KingWalk-to-Walk" style="stroke:#181818;stroke-width:1;"/><polygon fill="#181818" points="138.56,184.4469,129.56,180.4469,133.56,184.4469,129.56,188.4469,138.56,184.4469" style="stroke:#181818;stroke-width:1;"/></g><!--reverse link Walk to QueenWalk--><g class="link" data-entity-1="Walk" data-entity-2="QueenWalk" data-source-line="18" data-uid="lnk11" id="link_Walk_QueenWalk"><path codeLine="18" d="M658.55,184.4469 C670.05,184.4469 675.55,184.4469 687.06,184.4469" fill="none" id="Walk-backto-QueenWalk" style="stroke:#181818;stroke-width:1;"/><polygon fill="#181818" points="652.55,184.4469,661.55,188.4469,657.55,184.4469,661.55,180.4469,652.55,184.4469" style="stroke:#181818;stroke-width:1;"/></g><!--link BishopWalk to Walk--><g class="link" data-entity-1="BishopWalk" data-entity-2="Walk" data-source-line="20" data-uid="lnk13" id="link_BishopWalk_Walk"><path codeLine="20" d="M453.68,92.6669 C442.75,109.7569 431.0324,128.072 419.0424,146.822" fill="none" id="BishopWalk-to-Walk" style="stroke:#181818;stroke-width:1;"/><polygon fill="#181818" points="415.81,151.8769,424.0285,146.4495,418.5037,147.6645,417.2887,142.1397,415.81,151.8769" style="stroke:#181818;stroke-width:1;"/></g><!--link CastleWalk to Walk--><g class="link" data-entity-1="CastleWalk" data-entity-2="Walk" data-source-line="21" data-uid="lnk15" id="link_CastleWalk_Walk"><path codeLine="21" d="M336.78,92.6669 C347.86,109.7569 359.7472,128.0916 371.8972,146.8416" fill="none" id="CastleWalk-to-Walk" style="stroke:#181818;stroke-width:1;"/><polygon fill="#181818" points="375.16,151.8769,373.6226,142.1488,372.441,147.6808,366.9089,146.4992,375.16,151.8769" style="stroke:#181818;stroke-width:1;"/></g><!--reverse link Walk to KnightWalk--><g class="link" data-entity-1="Walk" data-entity-2="KnightWalk" data-source-line="23" data-uid="lnk16" id="link_Walk_KnightWalk"><path codeLine="23" d="M348.4493,220.6026 C317.1893,243.9026 280.17,271.5069 251.9,292.5769" fill="none" id="Walk-backto-KnightWalk" style="stroke:#181818;stroke-width:1;"/><polygon fill="#181818" points="353.26,217.0169,343.6535,219.1883,349.2511,220.005,348.4344,225.6026,353.26,217.0169" style="stroke:#181818;stroke-width:1;"/></g><!--reverse link Walk to PawnWalk--><g class="link" data-entity-1="Walk" data-entity-2="PawnWalk" data-source-line="24" data-uid="lnk17" id="link_Walk_PawnWalk"><path codeLine="24" d="M442.7999,220.6036 C466.6699,238.4036 491.91,257.2169 517.36,276.1869" fill="none" id="Walk-backto-PawnWalk" style="stroke:#181818;stroke-width:1;"/><polygon fill="#181818" points="437.99,217.0169,442.8137,225.6036,441.9982,220.0058,447.596,219.1904,437.99,217.0169" style="stroke:#181818;stroke-width:1;"/></g><!--SRC=[fP0zSi9038NxFOLACibUW4c5qp0qa2QbHwm5tc7HxbWYBZBS9MV9oR8smJzjwFG-QQIdfru3mJi5L1zPQfy4LgGj4KCHK8G4rkSKw4oide_mWU44QrPg3kZ8cA6yTRxCppSyWvUopHBtWHQk9f4oUNAqXA8Jswv-WOeah-mFvqQCJTKfUbh2FiPWhiRq3c2JxzwMN__8xfBzpT66_R7MELjvgMEQim8bVpndMsnvT6_18PTOVIAx_xiV5wcYEpsIGc_jrGOwg1t2kDEcUzkEYGpZbsGd0Kpf6C4m_1PRjfCCv_oUpoy0]--></g></svg>